<svg xmlns="http://www.w3.org/2000/svg" width="68" height="96" viewBox="0 0 68 96">
    <g fill="none" fill-rule="evenodd">
        <path fill="#3E3832" d="M10.438 32.032C10.438 17.655 21.008 6 34.052 6 47.092 6 57.72 17.623 57.72 32v.316s.027 27.71-23.675 27.71c-23.7 0-23.608 9.536-23.608 9.536V33.188v-1.156z"/>
        <path fill="#E7E5E2" d="M21.688 56.318c.957 1.531 3.646 28.432 11.718 28.432 8.074 0 11.719-27.4 11.719-28.827-12.361-7.081-23.438.395-23.438.395z"/>
        <path fill="#0C5472" d="M44.825 55.856c5.621 2.764 14.362 10.253 14.362 17.197V96H8.563V73.053c0-6.7 7.998-13.907 13.554-16.888-.281.172-.43.275-.43.275.958 1.586 3.531 8.623 11.603 8.623 8.074 0 11.835-7.555 11.835-9.032-.1-.06-.2-.118-.3-.175z"/>
        <path fill="#F5A096" d="M48.719 58.2c1.358.96 2.73 2.066 4.03 3.3l-4.622 13.949a8.204 8.204 0 0 1-.654 3.054c3.446 1.878 6.213 4.571 7.965 8.065V96H9.5c0-7.668 3.367-13.243 8.657-16.667 3.789-2.357 8.569-3.539 14.35-3.539 3.882 0 7.253.677 10.15 1.953a.524.524 0 0 0 .69-.264.517.517 0 0 0-.266-.684c-3.034-1.336-6.55-2.04-10.574-2.04-5.194 0-9.633.93-13.313 2.8l-1.205-4.783-3.569-10.793a35.803 35.803 0 0 1 3.988-3.439l3.537 9.983.344.079a8.357 8.357 0 0 1 4.96-1.62 8.36 8.36 0 0 1 6.264 2.807 8.36 8.36 0 0 1 6.264-2.806c1.83 0 3.522.584 4.898 1.574.134-.032.269-.065.403-.099l3.64-10.262z"/>
        <path fill="#A13A28" d="M29.628 88.83c-1.567-1.788-2.09-5.364 0-6.555 1.26-.718 2.519-.243 3.778.985 1.26-1.228 2.519-1.703 3.778-.985 2.09 1.191 1.568 4.767 0 6.554-.879 1.002-3.646 3.484-3.778 3.42-.132.064-2.899-2.418-3.778-3.42z"/>
        <path fill="#E6E5E2" fill-rule="nonzero" d="M55.438 85.43V96H40.816c-.56 0-1.013-.455-1.013-1.016 0-.56.453-1.015 1.013-1.015h5.572v-.508h-8.131c-.546 0-.987-.455-.987-1.015 0-.561.441-1.016.987-1.016h8.131v-.508h-9.65c-.545 0-.988-.455-.988-1.016 0-.56.443-1.015.988-1.015h9.65v-.508h-6.962c-.63 0-1.143-.455-1.143-1.016 0-.56.512-1.015 1.143-1.015h9.051l1.093-.508h-4.702c-.56 0-1.013-.455-1.013-1.016 0-.56.454-1.016 1.013-1.016h7.4c.396 0 .73.241 1.212.508.213.118.865.488 1.957 1.11z"/>
        <path fill="#E7E5E2" d="M14.693 31.8s-.098.559-.225.467a1.522 1.522 0 0 0-.568-.116c-.87 0-1.577.73-1.579 1.631l-.008 6.24c-.002.903.701 1.635 1.572 1.636.349 0 .668-.12.93-.319 2.105 10.049 9.61 17.146 18.557 17.161 8.949.015 16.477-7.058 18.611-17.1.26.2.58.321.93.322.87 0 1.576-.73 1.577-1.63l.01-6.241c0-.902-.703-1.634-1.573-1.636-.2 0-.392.043-.568.114C32.178 34.72 25.139 21 24.544 21c0 0-8.44 7.9-9.85 10.8z"/>
        <g>
            <g fill="#635E59">
                <path d="M26.68 37.671c-1.356.102-1.736-1.897-1.327-3.203.077-.248.526-1.375 1.32-1.375.795 0 1.145.616 1.194.722.584 1.273.297 3.744-1.187 3.856M41.82 37.671c1.357.102 1.737-1.897 1.328-3.203-.077-.248-.526-1.375-1.321-1.375-.794 0-1.145.616-1.193.722-.585 1.273-.298 3.744 1.186 3.856"/>
            </g>
            <path fill="#D1BFA3" fill-rule="nonzero" d="M34.68 39.97c.798-.123 1.343-.046 1.538.194.737.905.501 1.863-.762 2.649-.665.413-1.58.559-2.063.344a.469.469 0 0 0-.38.858c.8.354 2.031.158 2.938-.406 1.717-1.068 2.11-2.666.994-4.037-.472-.58-1.308-.698-2.407-.528a.469.469 0 1 0 .143.926z"/>
            <path fill="#D19E9C" fill-rule="nonzero" d="M40.024 46.805a4.27 4.27 0 0 1-.295.527 6.648 6.648 0 0 1-.998 1.214c-1.198 1.152-2.759 1.818-4.745 1.757-1.937-.06-3.49-.715-4.708-1.772a6.988 6.988 0 0 1-1.111-1.219 4.265 4.265 0 0 1-.33-.526.469.469 0 1 0-.842.414c.069.14.203.368.408.656a7.92 7.92 0 0 0 1.26 1.382c1.375 1.194 3.132 1.936 5.294 2.002 2.252.07 4.051-.699 5.424-2.018a7.58 7.58 0 0 0 1.138-1.386c.184-.288.303-.516.364-.656a.469.469 0 1 0-.86-.375z"/>
        </g>
    </g>
</svg>
