<svg xmlns="http://www.w3.org/2000/svg" width="68" height="96" viewBox="0 0 68 96">
    <g fill="none" fill-rule="evenodd">
        <path fill="#E7E5E2" d="M21 53.673C22.021 55.306 24.89 84 33.5 84 42.112 84 46 54.772 46 53.251c-13.185-7.553-25 .422-25 .422z"/>
        <path fill="#8B6D47" d="M45.68 53.18C51.676 56.128 61 64.116 61 71.523V96H7V71.523c0-7.147 8.531-14.834 14.458-18.014-.3.183-.458.294-.458.294C22.021 55.493 24.766 63 33.376 63 41.99 63 46 54.941 46 53.366a26.67 26.67 0 0 0-.32-.186z"/>
        <path fill="#E7E5E2" d="M54.188 38.27C51.67 48.508 43.585 56 34 56c-9.586 0-17.67-7.492-20.188-17.73a2.27 2.27 0 0 1-.812.148c-1.103 0-2-.771-2-1.726v-6.965c0-.955.897-1.727 2-1.727.071 0 .142.003.211.01C14.663 16.132 23.417 7 34 7c10.582 0 19.337 9.132 20.789 21.01.07-.007.14-.01.211-.01 1.105 0 2 .772 2 1.727v6.965c0 .955-.895 1.726-2 1.726-.289 0-.564-.053-.812-.148z"/>
        <g fill="#635E59">
            <path d="M26.03 30.625c-1.447.109-1.852-2.024-1.417-3.417.083-.264.562-1.465 1.41-1.465.847 0 1.221.656 1.273.769.623 1.358.317 3.993-1.266 4.113M42.18 30.625c1.447.109 1.852-2.024 1.416-3.417-.082-.264-.561-1.465-1.41-1.465-.846 0-1.22.656-1.272.769-.623 1.358-.318 3.993 1.266 4.113"/>
        </g>
        <path stroke="#D1BFA3" stroke-linecap="round" d="M34.487 32.583c.865-.133 1.708-.1 2.104.385.965 1.185.688 2.554-.937 3.566-.812.505-1.962.712-2.667.4"/>
        <path stroke="#593A32" stroke-linecap="round" stroke-width="1.013" d="M40.722 40.568s-1.828 4.187-6.914 4.031c-5.086-.156-6.993-4.031-6.993-4.031"/>
        <path fill="#F6B873" d="M29.188 38.012l5.183.374 5.243-.376A4 4 0 0 1 43.9 42v.703h-2.305l-.306-1.25-.21 1.25h-.839l-.153-.592-.166.592-5.424.222-7.66-.222-.17-.592-.297.592H24.9v-.7a4 4 0 0 1 4.288-3.99z"/>
        <path fill="#344144" d="M33.934 3c1.64 0 2.97 1.393 2.97 3.111v.017c5.927 1.042 11.014 4.946 14.727 12.242l1.274.428c1.002 2.016 1.296 4.391 1.492 6.786-5.664-1.607-12.495-2.41-20.492-2.41-11.999 0-20.33 2.562-20.33 2.562.132-2.442 0-4.664 1.167-6.938l1.57-.428c3.423-6.547 8.654-11.248 14.65-12.305C30.985 4.368 32.307 3 33.934 3z"/>
        <g>
            <path fill="#9B9590" d="M34 55c7.732 0 14 6.02 14 13.447v13.106C48 88.979 41.732 95 34 95s-14-6.02-14-13.447V68.447C20 61.021 26.268 55 34 55z"/>
            <g fill="#C6C2BF">
                <path d="M13.352 58.653l4.035-3.403a1.08 1.08 0 0 1 1.473.085.985.985 0 0 1 .202.326L28.939 82.1c.193.515-.087 1.08-.626 1.267L23.78 84.94c-.541.188-1.14-.078-1.337-.594l-9.38-24.61a.963.963 0 0 1 .289-1.083zM54.648 58.653c.32.27.435.7.29 1.083l-9.38 24.61h-.001c-.197.516-.796.782-1.337.594l-4.533-1.573c-.539-.187-.819-.752-.626-1.267l9.877-26.44a.985.985 0 0 1 .202-.325 1.08 1.08 0 0 1 1.473-.085l4.035 3.403z"/>
            </g>
        </g>
        <g>
            <path fill="#117938" d="M43 85.987V94H25v-8.013c0-2.292 2.94-4.91 4.91-5.987h8.18c1.988 1.097 4.91 3.721 4.91 5.987z"/>
            <path fill="#FA96A0" d="M40.428 81.66c.863.765 1.712 1.696 2.163 2.618-.272.168-1.55.168-1.694-.233.15.387.05.845-.282 1.127a.97.97 0 0 1-1.338-.073c.22.464.052 1.03-.395 1.291a.97.97 0 0 1-1.071-.06.997.997 0 0 1-.635 1.08.969.969 0 0 1-.933-.147.984.984 0 0 1-.746.625.97.97 0 0 1-.872-.286.98.98 0 0 1-.878.55.978.978 0 0 1-.843-.487.969.969 0 0 1-.806.223.984.984 0 0 1-.746-.625.969.969 0 0 1-.933.146.997.997 0 0 1-.635-1.079.97.97 0 0 1-1.071.06 1.003 1.003 0 0 1-.395-1.291.97.97 0 0 1-1.338.073 1.005 1.005 0 0 1-.282-1.127c-.284.127-.612-.39-.88-.545.41-.64 1.068-1.294 1.747-1.865.564 2.168 3.23 3.81 6.435 3.81 3.192 0 5.85-1.63 6.428-3.784z"/>
            <path fill="#E7E5E2" d="M22.023 68.255C22.408 61.975 27.623 57 34 57c6.377 0 11.592 4.974 11.977 11.255A2 2 0 0 1 47 70v2a2 2 0 0 1-2.087 1.998 12.038 12.038 0 0 1-6.926 6.324 4 4 0 0 1-7.974 0 12.038 12.038 0 0 1-6.926-6.324A2 2 0 0 1 21 72v-2a2 2 0 0 1 1.023-1.745z"/>
            <path fill="#78706A" fill-rule="nonzero" d="M31.484 58.356a.4.4 0 0 1 .771.213c-.073.265-.003.38.484.818.506.456.624 1.054.343 1.698a.4.4 0 1 1-.733-.32c.146-.333.1-.562-.145-.783-.698-.628-.903-.964-.72-1.626zm2.23-.214a.4.4 0 1 1 .643.475c-.163.222-.139.355.159.938.309.607.205 1.208-.288 1.708a.4.4 0 0 1-.57-.56c.255-.26.295-.49.145-.785-.426-.836-.497-1.223-.09-1.776zm2.185-.022a.4.4 0 0 1 .466.65c-.224.16-.242.295-.14.941.107.673-.178 1.213-.801 1.536a.4.4 0 0 1-.369-.71c.323-.167.432-.374.38-.7-.147-.927-.094-1.317.464-1.717z"/>
            <g>
                <g fill="#E8CCC8">
                    <path d="M30.8 74.333c0 1.381-1.074 2.5-2.4 2.5-1.325 0-2.4-1.119-2.4-2.5 0-1.38 1.075-2.5 2.4-2.5 1.326 0 2.4 1.12 2.4 2.5M42 74.333c0 1.381-1.074 2.5-2.4 2.5-1.325 0-2.4-1.119-2.4-2.5 0-1.38 1.075-2.5 2.4-2.5 1.326 0 2.4 1.12 2.4 2.5"/>
                </g>
                <path fill="#FA96A0" d="M32.705 77.956a1.257 1.257 0 0 1-.73-1.227l.563-1.562 2.209.976-.688 1.507c-.334.38-.873.519-1.354.306z"/>
                <path fill="#D1BFA3" fill-rule="nonzero" d="M34.66 70.611a.4.4 0 0 1-.475-.322.417.417 0 0 1 .31-.493c.538-.118.987-.027 1.235.405.48.842.313 1.812-.445 2.483-.441.39-1.06.53-1.492.259a.427.427 0 0 1-.135-.573.391.391 0 0 1 .549-.14c.095.06.356 0 .56-.18.464-.412.554-.934.275-1.422-.026-.046-.142-.07-.383-.017z"/>
                <g fill="#635E59">
                    <path fill-rule="nonzero" d="M36.812 69.232a.418.418 0 0 0 .291.505.4.4 0 0 0 .485-.303c.226-.942.619-1.35 1.212-1.35s.986.408 1.212 1.35a.4.4 0 0 0 .485.303.418.418 0 0 0 .291-.505c-.307-1.28-.981-1.982-1.988-1.982-1.007 0-1.68.702-1.988 1.982z"/>
                    <path d="M29.606 70.164c-1.103.075-1.412-1.38-1.08-2.33.063-.18.428-1 1.074-1 .646 0 .93.448.97.525.475.926.243 2.724-.964 2.805"/>
                </g>
                <path fill="#593A32" fill-rule="nonzero" d="M35.958 75.353a.425.425 0 0 0-.18-.559.393.393 0 0 0-.536.186c-.192.4-.582.603-1.242.603s-1.05-.203-1.242-.603a.393.393 0 0 0-.537-.186.425.425 0 0 0-.179.559c.342.711 1.018 1.064 1.958 1.064s1.616-.353 1.958-1.064z"/>
            </g>
        </g>
        <g>
            <path fill="#C6C2BF" d="M49 96H19v-9.882C19 84.948 20.362 84 22.042 84h23.916c1.68 0 3.042.948 3.042 2.118V96z"/>
            <path fill="#FFF" d="M21.124 84h25.752C48.601 84 50 85.343 50 87s-1.399 3-3.124 3H21.124C19.399 90 18 88.657 18 87s1.399-3 3.124-3z"/>
        </g>
    </g>
</svg>
