<svg xmlns="http://www.w3.org/2000/svg" width="180" height="115" viewBox="0 0 180 115">
    <g fill="none" fill-rule="evenodd">
        <path fill="#FFF" d="M134.561 82.768c0 6.183-5.012 11.195-11.195 11.195h-67.17C50.011 93.963 45 88.951 45 82.768v-54.11h89.561v54.11z"/>
        <path fill="#BA3A26" d="M56.195 15.598h67.17c6.184 0 11.196 5.012 11.196 11.195v7.463H45v-7.463c0-6.183 5.012-11.195 11.195-11.195zm55.043 13.06a2.799 2.799 0 1 0 0-5.597 2.799 2.799 0 0 0 0 5.598zm-42.915 0a2.799 2.799 0 1 0 0-5.597 2.799 2.799 0 0 0 0 5.598z"/>
        <g transform="translate(58.061 45.451)">
            <rect width="63.439" height="3.732" fill="#C6C2BF" rx="1.866"/>
            <rect width="13.994" height="3.732" x="49.445" y="11.195" fill="#C6C2BF" rx="1.866"/>
            <rect width="30.787" height="3.732" y="11.195" fill="#C6C2BF" rx="1.866"/>
            <rect width="63.439" height="3.732" y="22.39" fill="#C6C2BF" rx="1.866"/>
            <rect width="63.439" height="3.732" y="33.585" fill="#C6C2BF" rx="1.866"/>
            <circle cx="40.116" cy="13.061" r="5.598" fill="#FFA733"/>
        </g>
        <path fill="#FFF" d="M106.544 22.875h17.485a17.069 17.069 0 0 1 5.252 4.844c5.464 7.716 3.629 18.394-4.102 23.849-7.731 5.454-18.428 3.62-23.893-4.095-5.466-7.717-3.628-18.395 4.102-23.85a17.38 17.38 0 0 1 1.156-.748z"/>
        <path fill="#BA3A26" d="M130.738 30.188h-30.91a17.041 17.041 0 0 1 5.56-6.564 17.101 17.101 0 0 1 11.751-3.038 3.657 3.657 0 0 0 5.558 1.579 17.056 17.056 0 0 1 6.584 5.554 17.22 17.22 0 0 1 1.457 2.468z"/>
        <path fill="#C6C2BF" d="M130.83 44.813a16.993 16.993 0 0 1-3.414 4.874h-24.265a17.23 17.23 0 0 1-3.414-4.874h31.093z"/>
        <g>
            <path fill="#B6EDFE" d="M129.28 27.719c5.465 7.716 3.63 18.394-4.1 23.849-7.732 5.454-18.43 3.62-23.894-4.095-5.466-7.717-3.628-18.395 4.102-23.85 7.731-5.454 18.428-3.62 23.893 4.096z" opacity=".612"/>
            <path fill="#FFF" d="M126.9 46.089a14.519 14.519 0 0 1-12.678 5.564c-7.993-.663-13.935-7.669-13.271-15.649.662-7.98 7.68-13.913 15.673-13.25a14.47 14.47 0 0 1 8.538 3.693 13.396 13.396 0 0 0-7.111-2.756c-7.401-.613-13.9 4.88-14.513 12.27-.614 7.388 4.888 13.875 12.289 14.489a13.434 13.434 0 0 0 11.073-4.361z" opacity=".999"/>
            <path fill="#C52C35" d="M145.635 79.19a3.865 3.865 0 0 1-5.38-.922l-13.153-18.572a3.848 3.848 0 0 1 .924-5.37 3.864 3.864 0 0 1 5.379.922l13.154 18.573a3.849 3.849 0 0 1-.924 5.37"/>
            <path fill="#2F3238" d="M106.628 24.115c-7.149 5.044-8.853 14.955-3.8 22.09s14.982 8.836 22.131 3.792c7.15-5.044 8.854-14.955 3.8-22.09-5.052-7.135-14.981-8.837-22.13-3.792m19.815 27.98c-8.307 5.86-19.844 3.885-25.718-4.408-5.872-8.292-3.89-19.807 4.418-25.67 8.307-5.861 19.844-3.885 25.718 4.407 5.872 8.293 3.89 19.808-4.418 25.67"/>
            <path fill="#2F3238" d="M130.284 57.515c-1.16.819-2.413 1.042-3.235-.117l-2.742-3.873a2.565 2.565 0 0 1 .616-3.58 2.576 2.576 0 0 1 3.586.615l2.743 3.873c.82 1.159.192 2.264-.968 3.082"/>
            <path fill="#D94C56" d="M128.639 60.23l12.414 17.527a1.286 1.286 0 0 0 2.1-1.482l-11.88-16.774c-.985.668-1.913.846-2.634.728"/>
            <path fill="#E7E6E2" d="M156.682 66.828c1.32 0 2.389.93 2.389 2.079v22.108c0 1.148-1.068 2.079-2.389 2.079-1.318 0-2.386-.93-2.386-2.079V68.907c0-1.148 1.068-2.079 2.386-2.079M151.44 63.245a2.384 2.384 0 0 1 2.388 2.383v28.666a2.384 2.384 0 0 1-2.387 2.383 2.385 2.385 0 0 1-2.389-2.383V65.628a2.384 2.384 0 0 1 2.389-2.383M146.196 59.2a2.388 2.388 0 0 1 2.39 2.383v34.358a2.385 2.385 0 0 1-2.39 2.382 2.384 2.384 0 0 1-2.387-2.382V61.583a2.387 2.387 0 0 1 2.387-2.384M140.952 55.64a2.387 2.387 0 0 1 2.389 2.384v22.924a2.386 2.386 0 0 1-2.389 2.384 2.386 2.386 0 0 1-2.388-2.384V58.024a2.387 2.387 0 0 1 2.388-2.384"/>
            <path fill="#E7E6E2" d="M156.367 97.271v-2.96c0-.81 1.414-1.486 1.414-1.486l-2.942-23.78h-13.886l-2.39 7.809s-.584.179-1.169-.718c-.584-.9-2.338-5.117-2.338-5.117s-2.337-4.979-4.497-4.082c-2.156.896-1.168 4.172-1.168 4.172s1.1 5.165 1.71 7.628c.769 3.115 2.562 6.283 4.046 8.62 1.482 2.33 4.315 5.737 5.305 5.737l.226 4.177h15.689z"/>
            <path fill="#561D5B" d="M137.96 114.586h21.248V97.27h-21.247z"/>
            <path fill="#7C7086" d="M137.96 103.676h21.248V97.27h-21.247z"/>
            <path fill="#2F3237" d="M156.993 100.52a1.349 1.349 0 0 0-2.697 0 1.35 1.35 0 0 0 2.697 0"/>
        </g>
        <g>
            <path fill="#E7E6E2" d="M23.631 51.521a2.474 2.474 0 0 0-2.476 2.472v35.645a2.475 2.475 0 1 0 4.95 0V53.993a2.474 2.474 0 0 0-2.474-2.472M29.063 48.453a2.473 2.473 0 0 0-2.475 2.471v35.641a2.474 2.474 0 0 0 2.475 2.473 2.474 2.474 0 0 0 2.476-2.473v-35.64a2.473 2.473 0 0 0-2.476-2.472M34.499 46.218a2.477 2.477 0 0 0-2.477 2.474v35.643a2.474 2.474 0 0 0 2.477 2.472 2.473 2.473 0 0 0 2.475-2.472V48.692a2.476 2.476 0 0 0-2.475-2.474M39.933 49.138a2.476 2.476 0 0 0-2.475 2.474v25.75a2.474 2.474 0 0 0 2.475 2.473 2.474 2.474 0 0 0 2.476-2.473v-25.75a2.476 2.476 0 0 0-2.476-2.474"/>
            <path fill="#E7E6E2" d="M23.957 96.444v-3.072c0-.84-1.464-1.54-1.464-1.54L25.54 67.16h14.393l2.475 8.1s.606.186 1.213-.743c.605-.933 2.424-5.31 2.424-5.31s2.42-5.165 4.66-4.235c2.233.93 1.209 4.328 1.209 4.328s-1.14 5.36-1.772 7.914c-.796 3.232-2.655 6.52-4.192 8.943-1.537 2.419-4.473 5.952-5.498 5.952l-.235 4.334h-16.26z"/>
            <path fill="#561D5B" d="M21.013 114.406h22.021V96.444H21.013z"/>
            <path fill="#7C7086" d="M21.013 103.087h22.021v-6.643H21.013z"/>
            <path fill="#38363A" d="M23.309 99.815a1.399 1.399 0 1 1 2.797.002 1.399 1.399 0 0 1-2.797-.002"/>
        </g>
    </g>
</svg>
