<svg xmlns="http://www.w3.org/2000/svg" width="68" height="96" viewBox="0 0 68 96">
    <g fill="none" fill-rule="evenodd">
        <path fill="#F6B873" d="M57.28 73.245c-11.146 1.729-10.877 3.75-23.405 3.75-12.59 0-12.352-2.053-23.414-3.948-.016-.398-.024-40.173-.024-40.576C10.438 17.851 20.93 6 33.876 6c12.943 0 23.438 11.852 23.438 26.471 0 .47-.011 40.31-.033 40.774z"/>
        <path fill="#E7E5E2" d="M21.688 56.318c.957 1.531 3.646 28.432 11.718 28.432 8.074 0 11.719-27.4 11.719-28.827-12.361-7.081-23.438.395-23.438.395z"/>
        <path fill="#5EAEC7" d="M44.825 55.856c5.621 2.764 14.362 10.253 14.362 17.197V96H8.563V73.053c0-6.7 7.998-13.907 13.554-16.888-.281.172-.43.275-.43.275.958 1.586 3.531 8.623 11.603 8.623 8.074 0 11.835-7.555 11.835-9.032-.1-.06-.2-.118-.3-.175z"/>
        <path fill="#E7E5E2" d="M14.693 31.8s-.098.559-.225.467a1.522 1.522 0 0 0-.568-.116c-.87 0-1.577.73-1.579 1.631l-.008 6.24c-.002.903.701 1.635 1.572 1.636.349 0 .668-.12.93-.319 2.105 10.049 9.61 17.146 18.557 17.161 8.949.015 16.477-7.058 18.611-17.1.26.2.58.321.93.322.87 0 1.576-.73 1.577-1.63l.01-6.241c0-.902-.703-1.634-1.573-1.636-.2 0-.392.043-.568.114C32.178 34.72 25.139 21 24.544 21c0 0-8.44 7.9-9.85 10.8z"/>
        <g>
            <g fill="#635E59">
                <path d="M26.68 37.671c-1.356.102-1.736-1.897-1.327-3.203.077-.248.526-1.375 1.32-1.375.795 0 1.145.616 1.194.722.584 1.273.297 3.744-1.187 3.856M41.82 37.671c1.357.102 1.737-1.897 1.328-3.203-.077-.248-.526-1.375-1.321-1.375-.794 0-1.145.616-1.193.722-.585 1.273-.298 3.744 1.186 3.856"/>
            </g>
            <path fill="#D1BFA3" fill-rule="nonzero" d="M34.68 39.97c.798-.123 1.343-.046 1.538.194.737.905.501 1.863-.762 2.649-.665.413-1.58.559-2.063.344a.469.469 0 0 0-.38.858c.8.354 2.031.158 2.938-.406 1.717-1.068 2.11-2.666.994-4.037-.472-.58-1.308-.698-2.407-.528a.469.469 0 1 0 .143.926z"/>
            <path fill="#D19E9C" fill-rule="nonzero" d="M40.024 46.805a4.27 4.27 0 0 1-.295.527 6.648 6.648 0 0 1-.998 1.214c-1.198 1.152-2.759 1.818-4.745 1.757-1.937-.06-3.49-.715-4.708-1.772a6.988 6.988 0 0 1-1.111-1.219 4.265 4.265 0 0 1-.33-.526.469.469 0 1 0-.842.414c.069.14.203.368.408.656a7.92 7.92 0 0 0 1.26 1.382c1.375 1.194 3.132 1.936 5.294 2.002 2.252.07 4.051-.699 5.424-2.018a7.58 7.58 0 0 0 1.138-1.386c.184-.288.303-.516.364-.656a.469.469 0 1 0-.86-.375z"/>
        </g>
    </g>
</svg>
