<svg xmlns="http://www.w3.org/2000/svg" role="img" aria-hidden="true" width="40" height="40" viewBox="0 0 40 40">
    <g fill="none" fill-rule="evenodd">
        <circle cx="20" cy="20" r="20" fill="#FFF"/>
        <path fill="#C86151" d="M20 0C8.955 0 0 8.954 0 20c0 11.045 8.954 20 20 20s20-8.954 20-20C40 8.955 31.045 0 20 0zm-.001 4.968a2.422 2.422 0 1 1 0 4.845 2.422 2.422 0 0 1 0-4.845zm7.378 17.35a1.162 1.162 0 0 1-1.378-.626l-1.853-6.02a.56.56 0 0 0-.7-.373.553.553 0 0 0-.38.611c-.008.01 2.74 8.988 3.16 10.362h-3.014v7.38a1.378 1.378 0 1 1-2.757 0V26.271h-.911v7.38a1.379 1.379 0 0 1-2.756 0v-7.38h-3.015c.42-1.374 3.169-10.35 3.16-10.361a.552.552 0 0 0-.38-.612.56.56 0 0 0-.7.373L14 21.693a1.162 1.162 0 0 1-1.377.626c-.609-.183-.948-.84-.758-1.464 0 0 2.572-8.134 2.6-8.193.7-2.185 2.466-2.178 4.09-2.182h2.889c1.624.004 3.39-.003 4.088 2.182.03.06 2.601 8.193 2.601 8.193.191.623-.149 1.28-.756 1.464z"/>
    </g>
</svg>
