<svg xmlns="http://www.w3.org/2000/svg" role="img" aria-hidden="true" width="40" height="40" viewBox="0 0 32 32">
    <g stroke="none" stroke-width="1" fill="none" fill-rule="evenodd" transform="translate(0.000000, -11.000000)">
        <g transform="translate(0.000000, 11.000000)">
            <circle fill="#FFFFFF" cx="16" cy="16" r="16" />
            <g stroke-width="1">
                <path fill="#FFF" d="M16,0 C7.164,0 0,7.164 0,16 C0,24.836 7.1635,32 16,32 C24.8365,32 32,24.8365 32,16 C32,7.164 24.836,0 16,0 L16,0 Z M15.9995,3.9745 C17.069,3.9745 17.9375,4.8415 17.9375,5.9115 C17.9375,6.9815 17.0685,7.849 15.9995,7.849 C14.93,7.849 14.063,6.981 14.063,5.9115 C14.063,4.842 14.93,3.9745 15.9995,3.9745 L15.9995,3.9745 Z M21.0465,11.765 L21.0465,17.1645 C21.0465,17.6 20.6585,17.9515 20.1795,17.9515 C19.7,17.9515 19.3115,17.6 19.3115,17.1645 L19.3115,14.2465 L19.3115,13.287 L19.3115,12.6895 L19.3115,12.689 C19.3115,12.486 19.147,12.321 18.9435,12.321 C18.749,12.321 18.594,12.473 18.5805,12.664 C18.578,12.6735 18.57,12.6795 18.57,12.6895 L18.57,14.3645 L18.57,26.923 C18.57,27.5325 18.077,28.026 17.468,28.026 C16.859,28.026 16.3645,27.532 16.3645,26.923 L16.3645,26.908 L16.3645,21.194 L16.3645,18.43 L16.3645,17.8995 C16.3645,17.6995 16.2015,17.536 16,17.5355 C15.798,17.5355 15.6355,17.6995 15.6355,17.8995 L15.6355,18.43 L15.6355,21.194 L15.6355,26.9075 L15.6355,26.9225 C15.6355,27.532 15.1415,28.0255 14.532,28.0255 C13.923,28.0255 13.43,27.5315 13.43,26.9225 L13.43,14.364 L13.43,12.689 C13.43,12.679 13.4215,12.6725 13.4195,12.6635 C13.406,12.4725 13.251,12.3205 13.0565,12.3205 C12.8535,12.3205 12.6885,12.485 12.6885,12.6885 L12.6885,12.689 L12.6885,13.2865 L12.6885,14.246 L12.6885,17.164 C12.6885,17.5995 12.3,17.951 11.8205,17.951 C11.341,17.951 10.9535,17.5995 10.9535,17.164 L10.9535,11.7645 L10.9535,11.4155 C10.9535,9.7225 12.758,8.4885 14.4285,8.395 L15.6325,8.387 L15.6325,8.3825 L16.0005,8.385 L16.3685,8.3825 L16.3685,8.387 L17.5725,8.395 C19.2425,8.488 21.0475,9.7225 21.0475,11.4155 C21.0465,11.4915 21.0465,11.729 21.0465,11.765 L21.0465,11.765 Z" />
                <path fill="#3385D1" d="M16,0 C7.164,0 0,7.164 0,16 C0,24.836 7.1635,32 16,32 C24.8365,32 32,24.8365 32,16 C32,7.164 24.836,0 16,0 L16,0 Z M15.9995,3.9745 C17.069,3.9745 17.9375,4.8415 17.9375,5.9115 C17.9375,6.9815 17.0685,7.849 15.9995,7.849 C14.93,7.849 14.063,6.981 14.063,5.9115 C14.063,4.842 14.93,3.9745 15.9995,3.9745 L15.9995,3.9745 Z M21.0465,11.765 L21.0465,17.1645 C21.0465,17.6 20.6585,17.9515 20.1795,17.9515 C19.7,17.9515 19.3115,17.6 19.3115,17.1645 L19.3115,14.2465 L19.3115,13.287 L19.3115,12.6895 L19.3115,12.689 C19.3115,12.486 19.147,12.321 18.9435,12.321 C18.749,12.321 18.594,12.473 18.5805,12.664 C18.578,12.6735 18.57,12.6795 18.57,12.6895 L18.57,14.3645 L18.57,26.923 C18.57,27.5325 18.077,28.026 17.468,28.026 C16.859,28.026 16.3645,27.532 16.3645,26.923 L16.3645,26.908 L16.3645,21.194 L16.3645,18.43 L16.3645,17.8995 C16.3645,17.6995 16.2015,17.536 16,17.5355 C15.798,17.5355 15.6355,17.6995 15.6355,17.8995 L15.6355,18.43 L15.6355,21.194 L15.6355,26.9075 L15.6355,26.9225 C15.6355,27.532 15.1415,28.0255 14.532,28.0255 C13.923,28.0255 13.43,27.5315 13.43,26.9225 L13.43,14.364 L13.43,12.689 C13.43,12.679 13.4215,12.6725 13.4195,12.6635 C13.406,12.4725 13.251,12.3205 13.0565,12.3205 C12.8535,12.3205 12.6885,12.485 12.6885,12.6885 L12.6885,12.689 L12.6885,13.2865 L12.6885,14.246 L12.6885,17.164 C12.6885,17.5995 12.3,17.951 11.8205,17.951 C11.341,17.951 10.9535,17.5995 10.9535,17.164 L10.9535,11.7645 L10.9535,11.4155 C10.9535,9.7225 12.758,8.4885 14.4285,8.395 L15.6325,8.387 L15.6325,8.3825 L16.0005,8.385 L16.3685,8.3825 L16.3685,8.387 L17.5725,8.395 C19.2425,8.488 21.0475,9.7225 21.0475,11.4155 C21.0465,11.4915 21.0465,11.729 21.0465,11.765 L21.0465,11.765 Z" />
            </g>
        </g>
    </g>
</svg>