<?xml version="1.0" encoding="UTF-8"?>
<svg width="64px" height="64px" role="img" aria-hidden="true" viewBox="0 0 64 64" version="1.1" xmlns="http://www.w3.org/2000/svg" xmlns:xlink="http://www.w3.org/1999/xlink">
    <g id="ES" stroke="none" stroke-width="1" fill="none" fill-rule="evenodd">
        <g id="Engangsstønad-med-veivisermelding-Copy" transform="translate(-319.000000, -633.000000)">
            <g id="Stacked-Group" transform="translate(318.000000, 469.000000)">
                <g id="Group-3" transform="translate(0.000000, 148.000000)">
                    <g id="Component/alert-box/left/spotlight">
                        <g id="Illustration" transform="translate(0.000000, 16.000000)">
                            <circle id="Background" fill="#C1B5D0" cx="33" cy="32" r="32"></circle>
                            <g id="Icon" transform="translate(0.500000, 0.000000)">
                                <circle id="Background" fill="#C1B5D0" cx="32.5" cy="32" r="32"></circle>
                                <path d="M30.9444675,8.60376786 L30.9444675,63.3580888 L34.0555325,63.3580888 L34.0555325,8.60376786 L30.9444675,8.60376786 Z" id="Rectangle" stroke="#7F756C" stroke-width="1.03502882" fill="#FFFFFF"></path>
                                <polygon id="Rectangle" stroke="#7F756C" stroke-width="1.08160513" fill="#FFFFFF" points="19.2705619 15.1922158 43.7511353 14.7452697 48.5678389 18.3320516 43.8734386 22.0924794 19.3928652 22.5394255"></polygon>
                                <polygon id="Rectangle-Copy" stroke="#7F756C" stroke-width="1.08160513" fill="#FFFFFF" points="45.2942619 26.7754826 45.0500249 34.1091914 20.5811445 33.2154304 15.9499825 29.3749556 20.8253814 25.8817216"></polygon>
                                <path d="M37.72633,63.5753198 C36.6958066,63.7446089 35.6487053,63.8646672 34.5875211,63.9329996 L33.9252197,63.9329996 C34.2852852,62.426818 34.9777717,60.7747561 36.0026791,58.9768138 C37.0275866,57.1788716 38.7323636,55.5259963 41.1170103,54.0181879 C39.8712743,55.962036 38.995973,57.8779792 38.4911064,59.7660173 C38.0494403,61.417706 37.7945148,62.6874734 37.72633,63.5753198 Z" id="Path" fill="#38A161"></path>
                                <path d="M40.5653347,62.9749701 C39.7705914,63.1813242 38.963845,63.3579 38.1463579,63.5034353 C38.5611328,62.3004858 39.1846823,61.0091407 40.0170064,59.6294001 C40.8614129,58.2296304 42.0854662,57.0119195 43.6891662,55.9762673 C42.6954033,57.4771536 41.9229246,58.9884488 41.3717301,60.510153 C41.0144337,61.4965554 40.7456352,62.3181611 40.5653347,62.9749701 Z" id="Path" fill="#117938"></path>
                                <path d="M38.6672199,63.4062331 C38.1562349,63.5059969 37.6408992,63.5936004 37.1215263,63.6687302 C37.3947209,62.6967569 37.7928926,61.6501074 38.3160414,60.5287816 C38.8767162,59.3270221 39.6921396,58.258124 40.7623116,57.3220873 C40.1019845,58.6148915 39.5898277,59.905733 39.2258412,61.1946119 C38.9713295,62.0958398 38.7851224,62.8330469 38.6672199,63.4062331 Z" id="Path" fill="#6AB889"></path>
                                <path d="M34.7926806,63.9191326 C34.7243531,63.9239697 34.6559664,63.9285923 34.5875211,63.9329996 L31.0090884,63.9329996 C31.3691539,62.426818 32.0616403,60.7747561 33.0865478,58.9768138 C34.1114552,57.1788716 35.8162323,55.5259963 38.2008789,54.0181879 C36.955143,55.962036 36.0798417,57.8779792 35.574975,59.7660173 C35.0727231,61.6442775 34.8119582,63.0286493 34.7926806,63.9191326 Z" id="Path" fill="#06893A"></path>
                                <path d="M30.4124789,63.9329996 C29.841286,63.896219 29.2741733,63.8444522 28.7115297,63.7780883 C28.6697209,62.8852135 28.4105821,61.5478565 27.9341133,59.7660173 C27.4292467,57.8779792 26.5539454,55.962036 25.3082095,54.0181879 C27.6928561,55.5259963 29.3976331,57.1788716 30.4225406,58.9768138 C31.4474481,60.7747561 32.1399345,62.426818 32.5,63.9329996 L30.4124789,63.9329996 Z" id="Path" fill="#38A161"></path>
                                <path d="M26.8792868,63.5079899 C26.4260635,63.4276856 25.9761357,63.3378416 25.5297184,63.2386727 C25.2836682,62.712505 24.9385378,62.0488925 24.4943271,61.2478351 C23.8421732,60.0717881 23.0451937,58.9263126 22.1033884,57.8114086 C23.362186,58.4888373 24.403431,59.3515716 25.2271233,60.3996116 C26.0508156,61.4476515 26.7148394,62.443587 27.2191946,63.3874182 L26.8792868,63.5079899 Z" id="Path" fill="#6AB889"></path>
                                <path d="M28.9753435,63.8080982 C28.4887923,63.7547899 28.0055215,63.690574 27.5257811,63.6157004 C27.7759107,62.6637956 28.1416692,61.639232 28.6230567,60.5420098 C29.1556114,59.3281627 29.945942,58.2415101 30.9940485,57.2820521 C30.3639867,58.5891239 29.8820113,59.8909573 29.5481223,61.1875524 C29.2568511,62.3186491 29.0659249,63.1921644 28.9753435,63.8080982 Z" id="Path" fill="#06893A"></path>
                                <path d="M28.3388922,63.7319201 C27.5826177,63.6337161 26.834632,63.5091076 26.0958902,63.3590495 C26.0372529,62.6335596 25.891908,61.6573476 25.6598556,60.4304134 C25.3597026,58.8434097 24.839319,57.2329503 24.0987048,55.599035 C25.5164235,56.866434 26.5299466,58.2557699 27.139274,59.7670429 C27.716506,61.1987118 28.1163787,62.5203376 28.3388922,63.7319201 Z" id="Path" fill="#38A161"></path>
                                <path d="M27.8042673,57.8114086 C29.0630649,58.4888373 30.1043099,59.3515716 30.9280022,60.3996116 C31.7516945,61.4476515 32.4157183,62.443587 32.9200735,63.3874182 L31.5110033,63.8872421 C31.285959,63.3036845 30.8473599,62.4238821 30.195206,61.2478351 C29.5430521,60.0717881 28.7460726,58.9263126 27.8042673,57.8114086 Z" id="Path" fill="#06893A"></path>
                                <path d="M29.0794727,55.599035 C30.4971914,56.866434 31.5107145,58.2557699 32.1200419,59.7670429 C32.7293693,61.2783158 33.1410659,62.6669681 33.3551318,63.9329996 L31.1058801,63.9329996 C31.0958621,63.1849458 30.9407765,62.0174171 30.6406235,60.4304134 C30.3404705,58.8434097 29.8200869,57.2329503 29.0794727,55.599035 Z" id="Path" fill="#6AB889"></path>
                            </g>
                        </g>
                    </g>
                </g>
            </g>
        </g>
    </g>
</svg>